<svg fill="none" height="24" viewBox="0 0 24 24" width="24" xmlns="http://www.w3.org/2000/svg"><g stroke="#292d32" stroke-linecap="round" stroke-linejoin="round" stroke-width="1.5"><path d="m2 12.83v2.17c0 5 2 7 7 7h6c5 0 7-2 7-7v-6c0-5-2-7-7-7h-6c-5 0-7 2-7 7"/><g stroke-miterlimit="10"><path d="m10.1103 11.1501h-2.65c-.63 0-1.13999.51-1.13999 1.14v5.12h3.78999z"/><path d="m12.7596 6.6001h-1.52c-.63 0-1.14.51001-1.14 1.14001v9.65999h3.79v-9.65999c0-.63-.5-1.14001-1.13-1.14001z"/><path d="m16.5504 12.8501h-2.65v4.55h3.79v-3.41c-.01-.63-.52-1.14-1.14-1.14z"/></g></g></svg>