<svg height="56" viewBox="0 0 56 56" width="56" xmlns="http://www.w3.org/2000/svg"><path d="m27.9999 51.9063c13.0547 0 23.9064-10.8282 23.9064-23.9063 0-13.0547-10.8751-23.9063-23.9298-23.9063-13.0782 0-23.8828 10.8516-23.8828 23.9063 0 13.0781 10.8281 23.9063 23.9062 23.9063zm4.3125-11.7188c-.6562.6562-1.9219.5625-2.625-.0703l-10.2656-9.6563c-1.3594-1.3125-1.3828-3.5625 0-4.8515l10.2656-9.6563c.7735-.7265 1.8984-.7734 2.6016-.0703.7265.7266.7968 1.9453.0468 2.6484l-10.1249 9.4922 10.1249 9.5391c.7032.6797.7266 1.875-.0234 2.625z"/></svg>