<svg height="56" viewBox="0 0 56 56" width="56" xmlns="http://www.w3.org/2000/svg"><path d="m27.9999 51.9063c13.0547 0 23.9064-10.8282 23.9064-23.9063 0-13.0547-10.8751-23.9063-23.9298-23.9063-13.0782 0-23.8828 10.8516-23.8828 23.9063 0 13.0781 10.8281 23.9063 23.9062 23.9063zm-5.1328-11.7188c-.75-.75-.75-1.9453-.0235-2.625l10.1251-9.5391-10.1251-9.4922c-.7734-.7031-.6796-1.9218.0469-2.6484.7031-.7031 1.8282-.6562 2.6016.0703l10.2656 9.6563c1.3828 1.289 1.3594 3.539 0 4.8515l-10.2656 9.6563c-.7031.6328-1.9687.7265-2.625.0703z"/></svg>