<svg fill="none" height="24" viewBox="0 0 24 24" width="24" xmlns="http://www.w3.org/2000/svg"><g fill="#292d32"><path d="m22 22.75h-20c-.41 0-.75-.34-.75-.75s.34-.75.75-.75h20c.41 0 .75.34.75.75s-.34.75-.75.75z"/><path d="m3.7002 21.9997h-1.5l.04999-12.02999c0-.85.39001-1.63997 1.06001-2.15997l7-5.45001c.99-.77 2.38-.77 3.38 0l7 5.44c.66.52 1.06 1.32998 1.06 2.16998v12.02999h-1.5v-12.01998c0-.38-.18-.74999-.48-.98999l-7-5.44c-.45-.35-1.08-.35-1.54 0l-7.00001 5.45001c-.3.23-.48.59998-.48.97998z"/><path d="m14.5 22.75h-5c-.41 0-.75-.34-.75-.75v-3.5c0-1.24 1.01-2.25 2.25-2.25h2c1.24 0 2.25 1.01 2.25 2.25v3.5c0 .41-.34.75-.75.75zm-4.25-1.5h3.5v-2.75c0-.41-.34-.75-.75-.75h-2c-.41 0-.75.34-.75.75z"/><path d="m9.5 14.5h-2c-.96 0-1.75-.79-1.75-1.75v-1.5c0-.96.79-1.75 1.75-1.75h2c.96 0 1.75.79 1.75 1.75v1.5c0 .96-.79 1.75-1.75 1.75zm-2-3.5c-.14 0-.25.11-.25.25v1.5c0 .14.11.25.25.25h2c.14 0 .25-.11.25-.25v-1.5c0-.14-.11-.25-.25-.25z"/><path d="m16.5 14.5h-2c-.96 0-1.75-.79-1.75-1.75v-1.5c0-.96.79-1.75 1.75-1.75h2c.96 0 1.75.79 1.75 1.75v1.5c0 .96-.79 1.75-1.75 1.75zm-2-3.5c-.14 0-.25.11-.25.25v1.5c0 .14.11.25.25.25h2c.14 0 .25-.11.25-.25v-1.5c0-.14-.11-.25-.25-.25z"/><path d="m19.0001 7.75c-.41 0-.75-.32999-.75-.73999l-.02-2.26001h-3.65c-.41 0-.75-.34-.75-.75s.34-.75.75-.75h4.4c.41 0 .75.32999.75.73999l.03 3c-.01.42-.34.76001-.76.76001z"/></g></svg>