<svg fill="none" height="24" viewBox="0 0 24 24" width="24" xmlns="http://www.w3.org/2000/svg"><path d="m9.308 4.00001h5.521c.0573 0 .1143.00366.171.011 2.2473.15716 3.9924 2.02219 4 4.275v6.42899c-.0083 2.3721-1.9359 4.2894-4.308 4.285h-5.384c-2.37249.0044-4.30028-1.9135-4.308-4.286v-6.42799c.00772-2.37248 1.93551-4.29043 4.308-4.286z" style="fill-rule:evenodd;clip-rule:evenodd;stroke:#000;stroke-width:1.5;stroke-linecap:round;stroke-linejoin:round"/><path d="m19 9.03599c.4142 0 .75-.33579.75-.75 0-.41422-.3358-.75-.75-.75zm-4-.75h-.75c0 .41421.3358.75.75.75zm.75-4.275c0-.41422-.3358-.75-.75-.75s-.75.33578-.75.75zm-4.75 11.73901c.4142 0 .75-.3358.75-.75s-.3358-.75-.75-.75zm-3-1.5c-.41421 0-.75.3358-.75.75s.33579.75.75.75zm7-1.5c.4142 0 .75-.3358.75-.75s-.3358-.75-.75-.75zm-7-1.5c-.41421 0-.75.3358-.75.75s.33579.75.75.75zm11-3.71401h-4v1.5h4zm-3.25.75v-4.275h-1.5v4.275zm-4.75 5.96401h-3v1.5h3zm4-3h-7v1.5h7z" fill="#000"/></svg>