<svg fill="none" height="24" viewBox="0 0 24 24" width="24" xmlns="http://www.w3.org/2000/svg"><g stroke="#222"><path d="m3.08168 13.9445c-.5287-.9504-.79306-1.4257-.79306-1.9445s.26436-.9941.79307-1.9445l1.34925-2.4255 1.42591-2.38124c.55875-.93309.83813-1.39964 1.28746-1.65906s.99306-.2681 2.08052-.28544l2.77517-.04426 2.7752.04426c1.0874.01734 1.6312.02602 2.0805.28544s.7287.72597 1.2874 1.65906l1.426 2.38124 1.3492 2.4255c.5287.9504.7931 1.4257.7931 1.9445s-.2644.9941-.7931 1.9445l-1.3492 2.4255-1.426 2.3812c-.5587.9331-.8381 1.3997-1.2874 1.6591s-.9931.2681-2.0805.2854l-2.7752.0443-2.77517-.0443c-1.08746-.0173-1.63119-.026-2.08052-.2854s-.72871-.726-1.28746-1.6591l-1.42591-2.3812z"/><circle cx="12" cy="12" r="3"/></g></svg>