<svg fill="none" height="20" viewBox="0 0 20 20" width="20" xmlns="http://www.w3.org/2000/svg"><g fill="#212121"><path d="m9.10431 2.89886c.36682-.74325 1.42669-.74324 1.79349.00003l2.0239 4.10106h4.5791c.2762 0 .5.22386.5.5 0 .27615-.2238.5-.5.5h-4.5791c-.3807 0-.7283-.21611-.8968-.55745l-2.0239-4.10107-1.93038 3.91147c-.14566.29514-.42722.49971-.75293.54704l-4.3166.62724 3.12352 3.04472c.23569.2297.34323.5607.2876.8851l-.73737 4.2991 4.09355-2.1521c.24441-.1285.54671-.0345.67521.2099s.0346.5468-.2099.6753l-4.09352 2.1521c-.73363.3857-1.59105-.2373-1.45094-1.0542l.73736-4.2992-3.12352-3.04464c-.59352-.57854-.266-1.58651.55422-1.70569l4.31659-.62724z"/><path d="m12 10.5c0-.2761.2239-.5.5-.5h5c.2761 0 .5.2239.5.5s-.2239.5-.5.5h-5c-.2761 0-.5-.2239-.5-.5z"/><path d="m12.5 13c-.2761 0-.5.2239-.5.5s.2239.5.5.5h5c.2761 0 .5-.2239.5-.5s-.2239-.5-.5-.5z"/></g></svg>